<mxfile host="app.diagrams.net" modified="2023-10-05T19:38:45.367Z" agent="Mozilla/5.0 (Macintosh; Intel Mac OS X 10_15_7) AppleWebKit/605.1.15 (KHTML, like Gecko) Version/17.0 Safari/605.1.15" etag="Kts85othBnXEt6VjKwgO" version="22.0.3" type="github">
  <diagram id="prtHgNgQTEPvFCAcTncT" name="Page-1">
    <mxGraphModel dx="819" dy="670" grid="1" gridSize="10" guides="1" tooltips="1" connect="1" arrows="1" fold="1" page="1" pageScale="1" pageWidth="827" pageHeight="1169" math="0" shadow="0">
      <root>
        <mxCell id="0" />
        <mxCell id="1" parent="0" />
        <mxCell id="dNxyNK7c78bLwvsdeMH5-19" value="Pool" style="swimlane;html=1;childLayout=stackLayout;resizeParent=1;resizeParentMax=0;horizontal=0;startSize=20;horizontalStack=0;" parent="1" vertex="1">
          <mxGeometry x="80" y="50" width="730" height="560" as="geometry" />
        </mxCell>
        <mxCell id="dNxyNK7c78bLwvsdeMH5-20" value="" style="swimlane;html=1;startSize=20;horizontal=0;" parent="dNxyNK7c78bLwvsdeMH5-19" vertex="1">
          <mxGeometry x="20" width="710" height="120" as="geometry">
            <mxRectangle x="20" width="710" height="40" as="alternateBounds" />
          </mxGeometry>
        </mxCell>
        <mxCell id="0PGuPzrVTo_Jo16L7plV-1" value="Take image" style="rounded=1;whiteSpace=wrap;html=1;" vertex="1" parent="dNxyNK7c78bLwvsdeMH5-20">
          <mxGeometry x="120" y="30" width="120" height="60" as="geometry" />
        </mxCell>
        <mxCell id="0PGuPzrVTo_Jo16L7plV-2" value="" style="endArrow=open;html=1;rounded=0;exitX=1;exitY=0.5;exitDx=0;exitDy=0;endFill=0;" edge="1" parent="dNxyNK7c78bLwvsdeMH5-20" source="0PGuPzrVTo_Jo16L7plV-1">
          <mxGeometry width="50" height="50" relative="1" as="geometry">
            <mxPoint x="290" y="210" as="sourcePoint" />
            <mxPoint x="310" y="60" as="targetPoint" />
          </mxGeometry>
        </mxCell>
        <mxCell id="0PGuPzrVTo_Jo16L7plV-24" value="" style="endArrow=open;html=1;rounded=0;entryX=0;entryY=0.5;entryDx=0;entryDy=0;endFill=0;startArrow=oval;startFill=1;endSize=6;targetPerimeterSpacing=0;sourcePerimeterSpacing=0;startSize=15;" edge="1" parent="dNxyNK7c78bLwvsdeMH5-20" target="0PGuPzrVTo_Jo16L7plV-1">
          <mxGeometry width="50" height="50" relative="1" as="geometry">
            <mxPoint x="30" y="60" as="sourcePoint" />
            <mxPoint x="80" y="60" as="targetPoint" />
          </mxGeometry>
        </mxCell>
        <mxCell id="0PGuPzrVTo_Jo16L7plV-3" value="Input Info" style="rounded=1;whiteSpace=wrap;html=1;" vertex="1" parent="dNxyNK7c78bLwvsdeMH5-20">
          <mxGeometry x="310" y="30" width="120" height="60" as="geometry" />
        </mxCell>
        <mxCell id="0PGuPzrVTo_Jo16L7plV-5" value="Enduser SLF" style="rounded=0;whiteSpace=wrap;html=1;" vertex="1" parent="dNxyNK7c78bLwvsdeMH5-20">
          <mxGeometry x="500" y="30" width="120" height="60" as="geometry" />
        </mxCell>
        <mxCell id="0PGuPzrVTo_Jo16L7plV-4" value="" style="endArrow=open;html=1;rounded=0;exitX=1;exitY=0.5;exitDx=0;exitDy=0;endFill=0;" edge="1" parent="dNxyNK7c78bLwvsdeMH5-20">
          <mxGeometry width="50" height="50" relative="1" as="geometry">
            <mxPoint x="430" y="59.5" as="sourcePoint" />
            <mxPoint x="500" y="59.5" as="targetPoint" />
          </mxGeometry>
        </mxCell>
        <mxCell id="0PGuPzrVTo_Jo16L7plV-25" value="EndUser" style="text;html=1;strokeColor=none;fillColor=none;align=center;verticalAlign=middle;whiteSpace=wrap;rounded=0;rotation=-90;" vertex="1" parent="dNxyNK7c78bLwvsdeMH5-20">
          <mxGeometry x="-20" y="45" width="60" height="30" as="geometry" />
        </mxCell>
        <mxCell id="dNxyNK7c78bLwvsdeMH5-21" value="System" style="swimlane;html=1;startSize=20;horizontal=0;" parent="dNxyNK7c78bLwvsdeMH5-19" vertex="1">
          <mxGeometry x="20" y="120" width="710" height="440" as="geometry" />
        </mxCell>
        <mxCell id="0PGuPzrVTo_Jo16L7plV-6" value="" style="endArrow=open;html=1;rounded=0;exitX=1;exitY=0.5;exitDx=0;exitDy=0;endFill=0;" edge="1" parent="dNxyNK7c78bLwvsdeMH5-21">
          <mxGeometry width="50" height="50" relative="1" as="geometry">
            <mxPoint x="620" y="-60" as="sourcePoint" />
            <mxPoint x="610" y="60.5" as="targetPoint" />
            <Array as="points">
              <mxPoint x="660" y="-59.5" />
              <mxPoint x="660" y="60.5" />
            </Array>
          </mxGeometry>
        </mxCell>
        <mxCell id="0PGuPzrVTo_Jo16L7plV-7" value="System SLF validation" style="rounded=1;whiteSpace=wrap;html=1;" vertex="1" parent="dNxyNK7c78bLwvsdeMH5-21">
          <mxGeometry x="490" y="30" width="120" height="60" as="geometry" />
        </mxCell>
        <mxCell id="0PGuPzrVTo_Jo16L7plV-9" value="" style="rhombus;whiteSpace=wrap;html=1;" vertex="1" parent="dNxyNK7c78bLwvsdeMH5-21">
          <mxGeometry x="380" y="25" width="70" height="70" as="geometry" />
        </mxCell>
        <mxCell id="0PGuPzrVTo_Jo16L7plV-8" value="" style="endArrow=open;html=1;rounded=0;exitX=0;exitY=0.5;exitDx=0;exitDy=0;endFill=0;entryX=1;entryY=0.5;entryDx=0;entryDy=0;" edge="1" parent="dNxyNK7c78bLwvsdeMH5-21" source="0PGuPzrVTo_Jo16L7plV-7" target="0PGuPzrVTo_Jo16L7plV-9">
          <mxGeometry width="50" height="50" relative="1" as="geometry">
            <mxPoint x="460" y="220" as="sourcePoint" />
            <mxPoint x="540" y="240" as="targetPoint" />
          </mxGeometry>
        </mxCell>
        <mxCell id="0PGuPzrVTo_Jo16L7plV-12" value="create official SLF report" style="rounded=1;whiteSpace=wrap;html=1;" vertex="1" parent="dNxyNK7c78bLwvsdeMH5-21">
          <mxGeometry x="110" y="25" width="120" height="60" as="geometry" />
        </mxCell>
        <mxCell id="0PGuPzrVTo_Jo16L7plV-10" value="" style="endArrow=open;html=1;rounded=0;exitX=0;exitY=0.5;exitDx=0;exitDy=0;endFill=0;entryX=1;entryY=0.5;entryDx=0;entryDy=0;" edge="1" parent="dNxyNK7c78bLwvsdeMH5-21" source="0PGuPzrVTo_Jo16L7plV-9" target="0PGuPzrVTo_Jo16L7plV-12">
          <mxGeometry width="50" height="50" relative="1" as="geometry">
            <mxPoint x="370" y="230" as="sourcePoint" />
            <mxPoint x="230" y="240" as="targetPoint" />
          </mxGeometry>
        </mxCell>
        <mxCell id="0PGuPzrVTo_Jo16L7plV-11" value="Enduser SFL == valid()" style="edgeLabel;html=1;align=center;verticalAlign=middle;resizable=0;points=[];" vertex="1" connectable="0" parent="0PGuPzrVTo_Jo16L7plV-10">
          <mxGeometry x="0.25" y="1" relative="1" as="geometry">
            <mxPoint as="offset" />
          </mxGeometry>
        </mxCell>
        <mxCell id="0PGuPzrVTo_Jo16L7plV-20" value="SLF report" style="rounded=0;whiteSpace=wrap;html=1;" vertex="1" parent="dNxyNK7c78bLwvsdeMH5-21">
          <mxGeometry x="110" y="140" width="120" height="60" as="geometry" />
        </mxCell>
        <mxCell id="0PGuPzrVTo_Jo16L7plV-21" value="" style="endArrow=open;html=1;rounded=0;exitX=1;exitY=0.5;exitDx=0;exitDy=0;endFill=0;" edge="1" parent="dNxyNK7c78bLwvsdeMH5-21">
          <mxGeometry width="50" height="50" relative="1" as="geometry">
            <mxPoint x="230" y="169.5" as="sourcePoint" />
            <mxPoint x="260" y="170" as="targetPoint" />
          </mxGeometry>
        </mxCell>
        <mxCell id="0PGuPzrVTo_Jo16L7plV-22" value="submit report" style="rounded=1;whiteSpace=wrap;html=1;" vertex="1" parent="dNxyNK7c78bLwvsdeMH5-21">
          <mxGeometry x="260" y="140" width="120" height="60" as="geometry" />
        </mxCell>
        <mxCell id="0PGuPzrVTo_Jo16L7plV-13" value="" style="endArrow=open;html=1;rounded=0;exitX=0.5;exitY=1;exitDx=0;exitDy=0;endFill=0;entryX=1;entryY=0.5;entryDx=0;entryDy=0;" edge="1" parent="1" source="0PGuPzrVTo_Jo16L7plV-9" target="0PGuPzrVTo_Jo16L7plV-15">
          <mxGeometry width="50" height="50" relative="1" as="geometry">
            <mxPoint x="570" y="500" as="sourcePoint" />
            <mxPoint x="420" y="550" as="targetPoint" />
            <Array as="points">
              <mxPoint x="520" y="445" />
            </Array>
          </mxGeometry>
        </mxCell>
        <mxCell id="0PGuPzrVTo_Jo16L7plV-14" value="Enduser SLF != valid()" style="edgeLabel;html=1;align=center;verticalAlign=middle;resizable=0;points=[];" vertex="1" connectable="0" parent="0PGuPzrVTo_Jo16L7plV-13">
          <mxGeometry x="0.336" y="1" relative="1" as="geometry">
            <mxPoint as="offset" />
          </mxGeometry>
        </mxCell>
        <mxCell id="0PGuPzrVTo_Jo16L7plV-15" value="" style="rhombus;whiteSpace=wrap;html=1;" vertex="1" parent="1">
          <mxGeometry x="370" y="410" width="70" height="70" as="geometry" />
        </mxCell>
        <mxCell id="0PGuPzrVTo_Jo16L7plV-16" value="" style="endArrow=open;html=1;rounded=0;exitX=0.5;exitY=1;exitDx=0;exitDy=0;endFill=0;" edge="1" parent="1" source="0PGuPzrVTo_Jo16L7plV-15">
          <mxGeometry width="50" height="50" relative="1" as="geometry">
            <mxPoint x="385" y="530" as="sourcePoint" />
            <mxPoint x="405" y="530" as="targetPoint" />
          </mxGeometry>
        </mxCell>
        <mxCell id="0PGuPzrVTo_Jo16L7plV-17" value="" style="ellipse;whiteSpace=wrap;html=1;aspect=fixed;" vertex="1" parent="1">
          <mxGeometry x="375" y="530" width="65" height="65" as="geometry" />
        </mxCell>
        <mxCell id="0PGuPzrVTo_Jo16L7plV-18" value="" style="ellipse;whiteSpace=wrap;html=1;aspect=fixed;fillColor=#f5f5f5;strokeColor=#666666;fontColor=#333333;" vertex="1" parent="1">
          <mxGeometry x="382.5" y="537.5" width="50" height="50" as="geometry" />
        </mxCell>
        <mxCell id="0PGuPzrVTo_Jo16L7plV-19" value="" style="endArrow=open;html=1;rounded=0;exitX=0.5;exitY=1;exitDx=0;exitDy=0;endFill=0;" edge="1" parent="1" source="0PGuPzrVTo_Jo16L7plV-12">
          <mxGeometry width="50" height="50" relative="1" as="geometry">
            <mxPoint x="240" y="460" as="sourcePoint" />
            <mxPoint x="270" y="310" as="targetPoint" />
          </mxGeometry>
        </mxCell>
        <mxCell id="0PGuPzrVTo_Jo16L7plV-23" value="" style="endArrow=open;html=1;rounded=0;exitX=0.367;exitY=1.05;exitDx=0;exitDy=0;endFill=0;entryX=0.5;entryY=0;entryDx=0;entryDy=0;exitPerimeter=0;" edge="1" parent="1" source="0PGuPzrVTo_Jo16L7plV-22" target="0PGuPzrVTo_Jo16L7plV-15">
          <mxGeometry width="50" height="50" relative="1" as="geometry">
            <mxPoint x="382.5" y="600" as="sourcePoint" />
            <mxPoint x="452.5" y="600" as="targetPoint" />
          </mxGeometry>
        </mxCell>
      </root>
    </mxGraphModel>
  </diagram>
</mxfile>
